<svg width="1128" height="391" viewBox="0 0 1128 391" fill="none" xmlns="http://www.w3.org/2000/svg">
<path d="M4.37697 344.749C-4.23571 358.903 0.256513 377.36 14.4106 385.972C28.5647 394.585 47.0208 390.093 55.6335 375.939L30.0052 360.344L4.37697 344.749ZM1091.34 329.944C1107.9 330.266 1121.59 317.098 1121.92 300.533L1127.17 30.584C1127.49 14.0186 1114.33 0.328366 1097.76 0.00599591C1081.19 -0.316374 1067.5 12.8512 1067.18 29.4166L1062.51 269.371L822.557 264.702C805.992 264.379 792.302 277.547 791.979 294.112C791.657 310.678 804.825 324.368 821.39 324.69L1091.34 329.944ZM30.0052 360.344L55.6335 375.939C148.045 224.069 307.003 111.774 489.287 86.3321C670.537 61.0346 878.34 121.165 1070.3 320.746L1091.92 299.949L1113.54 279.153C909.808 67.3291 683.403 -1.34279 480.993 26.9081C279.618 55.0145 105.466 178.619 4.37697 344.749L30.0052 360.344Z" fill="#CFC6B8"/>
</svg>
